<svg width="22" height="25" viewBox="0 0 22 25" fill="none" xmlns="http://www.w3.org/2000/svg">
<path d="M9.53864 0.0299014C4.27876 0.0299014 0 4.72442 0 10.4954C0 16.2664 4.27876 20.9609 9.53864 20.9609C11.1466 20.9609 12.7273 20.5423 14.0627 19.7349C14.1697 19.8762 14.2883 20.0063 14.417 20.1236L17.1423 23.1138C17.394 23.4245 17.7008 23.6754 18.0441 23.8513C18.3873 24.0271 18.7597 24.1241 19.1384 24.1364C19.517 24.1486 19.894 24.0758 20.2461 23.9224C20.5981 23.769 20.9179 23.5383 21.1858 23.2444C21.4537 22.9505 21.664 22.5996 21.8038 22.2133C21.9436 21.827 22.0099 21.4135 21.9988 20.998C21.9876 20.5826 21.8992 20.174 21.739 19.7974C21.5787 19.4208 21.3499 19.0841 21.0668 18.808L18.3415 15.8178C18.2087 15.6721 18.0626 15.5419 17.9054 15.4291C18.6412 13.964 19.1045 12.2596 19.1045 10.4655C19.1045 4.69452 14.8258 0 9.5659 0L9.53864 0.0299014ZM9.53864 3.02004C13.3268 3.02004 16.352 6.3391 16.352 10.4954C16.352 12.4689 15.6979 14.2929 14.5532 15.6384C14.526 15.6683 14.4987 15.6982 14.4715 15.7281C14.3428 15.8455 14.2242 15.9756 14.1172 16.1169C12.918 17.3129 11.2829 18.0007 9.51139 18.0007C5.72319 18.0007 2.69807 14.6816 2.69807 10.5253C2.69807 6.369 5.72319 3.04994 9.51139 3.04994L9.53864 3.02004Z" fill="black"/>
</svg>
